<?xml version="1.0" encoding="UTF-8" standalone="no"?> <svg xmlns="http://www.w3.org/2000/svg" xmlns:xlink="http://www.w3.org/1999/xlink" xmlns:serif="http://www.serif.com/" width="100%" height="100%" viewBox="0 0 127 123" version="1.1" xml:space="preserve" style="fill-rule:evenodd;clip-rule:evenodd;stroke-miterlimit:1.5;"> <g transform="matrix(0.906344,0,0,0.906344,-2312.55,-2979.38)"> <g transform="matrix(1,0,0,1,1266.76,2614.27)"> <g transform="matrix(1,0,-0.142387,1.01313,751.687,-31.5256)"> <path d="M772.008,695.372L772.008,827.792L650.94,827.792L650.94,695.372L772.008,695.372ZM758.081,708.984C758.081,708.984 664.867,708.984 664.867,708.984C664.867,708.984 664.867,814.179 664.867,814.179C664.867,814.179 758.081,814.179 758.081,814.179L758.081,708.984Z"></path> </g> <g transform="matrix(1,0,-0.140541,1,749.822,365.602)"> <path d="M635.494,374.457L677.359,376.196L677.359,391.395L678.081,429.566" style="fill:none;stroke:black;stroke-width:14.79px;"></path> </g> <g transform="matrix(0.948692,0,-0.1368,0.973383,780.705,-0.359969)"> <path d="M736.447,815.278C734.669,802.064 729.805,762.451 655.056,762.451" style="fill:none;stroke:black;stroke-width:15.39px;"></path> </g> <g transform="matrix(0.991476,0,-0.1335,0.949903,750.339,17.5429)"> <path d="M727.455,703.147C727.455,712.82 720.47,760.621 654.632,760.621" style="fill:none;stroke:black;stroke-width:15.24px;"></path> </g> <g transform="matrix(1,0,0,1,69.6917,291.394)"> <path d="M1289.61,463.475C1288.48,463.044 1287.41,462.576 1286.2,462.412C1283.52,462.048 1281.63,459.57 1282,456.883C1282.36,454.197 1284.84,452.311 1287.53,452.675C1289.6,452.957 1291.44,453.7 1293.42,454.409C1293.34,454.382 1293.18,454.335 1293.18,454.335C1293.18,454.335 1296.65,455.446 1297.7,456.869C1298.73,458.257 1299.12,460.64 1299.37,462.339C1299.76,465.022 1297.9,467.52 1295.22,467.913C1292.54,468.307 1290.04,466.448 1289.65,463.765C1289.63,463.684 1289.62,463.585 1289.61,463.475Z"></path> </g> </g> </g> </svg> 