<?xml version="1.0" encoding="UTF-8" standalone="no"?> <svg xmlns="http://www.w3.org/2000/svg" xmlns:xlink="http://www.w3.org/1999/xlink" xmlns:serif="http://www.serif.com/" width="100%" height="100%" viewBox="0 0 8639 8135" version="1.1" xml:space="preserve" style="fill-rule:evenodd;clip-rule:evenodd;stroke-linejoin:round;stroke-miterlimit:2;"><g><circle cx="4251.32" cy="3699.137" r="3699.137" style="fill:url(#_Linear1);"></circle><path d="M913.245,1423.441l163.594,-161.58l-448.778,-380.867l-106.115,-78.866l141.487,7.694l287.395,0l0,-196.204l-287.395,0l-145.908,7.694l110.537,-84.637l426.671,-375.096l-163.594,-161.58l-775.967,711.721l798.074,711.721Z" style="fill:#204d92;fill-rule:nonzero;"></path><path d="M1297.913,0l0,1423.441l778.177,0l0,-196.204l-530.576,0l0,-1227.237l-247.602,0Z" style="fill:#204d92;fill-rule:nonzero;"></path><rect x="2252.949" y="0" width="247.602" height="1423.441" style="fill:#204d92;fill-rule:nonzero;"></rect><path d="M3616.97,940.625l-479.729,-457.809l457.621,-305.848l-139.276,-176.968l-680.905,455.886l477.518,455.886l-519.522,334.701l139.276,176.968l745.016,-482.816Z" style="fill:#204d92;fill-rule:nonzero;"></path><path d="M4695.807,1346.498l-446.568,-1346.498l-92.851,0l-446.568,1346.498l236.548,76.943l70.743,-230.828l371.403,0l70.743,230.828l236.548,-76.943Zm-616.794,-350.09l37.582,-121.185l86.219,-302l86.219,302l37.582,121.185l-247.602,0Z" style="fill:#204d92;fill-rule:nonzero;"></path><path d="M4888.14,1423.441l959.457,0l0,-76.943l-2.211,-1.924l2.211,0l-353.717,-509.746l-137.065,-192.357l137.065,-180.816l278.552,-384.714l0,-76.943l-884.293,0l0,1423.441Zm247.602,-842.523l0,-384.714l267.498,0l-267.498,384.714Zm0,646.319l0,-521.287l342.663,521.287l-342.663,0Z" style="fill:#204d92;fill-rule:nonzero;"></path><path d="M6601.457,1423.441l163.594,-161.58l-448.778,-380.867l-106.115,-78.866l141.487,7.694l287.395,0l0,-196.204l-287.395,0l-145.908,7.694l110.537,-84.637l426.671,-375.096l-163.594,-161.58l-775.967,711.721l798.074,711.721Z" style="fill:#204d92;fill-rule:nonzero;"></path><path d="M7260.255,1423.441l247.602,0l0,-1227.237l340.453,0l0,-196.204l-928.507,0l0,196.204l340.453,0l0,1227.237Z" style="fill:#204d92;fill-rule:nonzero;"></path><path d="M2171.493,3402.381l157.977,-177.19l-441.908,-431.234l-198.538,-181.46l198.538,-187.864l420.56,-424.83l-157.977,-177.19l-749.323,789.884l770.671,789.884Z" style="fill:#204d92;fill-rule:nonzero;"></path><path d="M3219.691,3402.381l213.482,-108.876l-341.572,-544.38l-149.438,-213.482l149.438,-200.673l268.988,-426.965l0,-85.393l-881.682,0l0,1579.769l239.1,0l0,-802.693l501.683,802.693Zm-501.683,-930.783l0,-431.234l277.527,0l-277.527,431.234Z" style="fill:#204d92;fill-rule:nonzero;"></path><path d="M3582.61,3402.381l905.165,0l0,-1579.769l-239.1,0l0,1362.017l-426.965,0l0,-1362.017l-239.1,0l0,1579.769Z" style="fill:#204d92;fill-rule:nonzero;"></path><rect x="4679.909" y="1822.612" width="239.1" height="1579.769" style="fill:#204d92;fill-rule:nonzero;"></rect><path d="M5933.05,2866.54l-463.256,-508.088l441.908,-339.437l-134.494,-196.404l-657.525,505.953l461.122,505.953l-501.683,371.459l134.494,196.404l719.435,-535.84Z" style="fill:#204d92;fill-rule:nonzero;"></path><path d="M6821.136,3402.381l157.977,-179.325l-433.369,-422.695l-102.471,-87.528l136.629,8.539l277.527,0l0,-217.752l-277.527,0l-140.898,8.539l106.741,-93.932l412.021,-416.29l-157.977,-179.325l-749.323,789.884l770.671,789.884Z" style="fill:#204d92;fill-rule:nonzero;"></path><path d="M7950.457,2866.54l-463.256,-508.088l441.908,-339.437l-134.494,-196.404l-657.525,505.953l461.122,505.953l-501.683,371.459l134.494,196.404l719.435,-535.84Z" style="fill:#204d92;fill-rule:nonzero;"></path><g id="Background"><path d="M8436.523,7748.825c13.809,9.684 13.855,9.457 14.914,10.458c43.07,40.761 54.296,113.178 22.774,163.224c-51.895,82.391 -90.546,52.327 -99.114,25.076c-7.617,-24.226 -1.872,-39.258 -35.92,-76.061c-49.832,-53.864 -180.249,-61.535 -232.743,-69.203c-46.034,-6.724 -177.387,-13.493 -260.413,-13.195c-84.502,0.302 -146.971,15.506 -243.359,10.904c-120.335,-5.746 -124.469,-19.274 -139.457,-23.93c-13.262,-4.12 -13.67,4.697 -13.726,5.891c-0.196,4.225 12.25,16.64 13.521,17.908c34.305,34.223 58.394,79.422 200.922,100.689c65.33,9.748 92.843,-17.31 115.303,-0.971c32.432,23.593 -4.626,71.167 -8.384,75.992c-91.603,117.599 -206.288,143.745 -210.954,147.446c-3.777,2.996 -5.577,8.035 -9.354,11.031l-156.445,0c-2.508,-2.249 -2.05,-7.509 -16.516,-14.814c-53.46,-26.993 -58.478,-43.98 -108.415,-90.195c-6.61,-6.117 -33.021,-30.56 -92.894,-63.6c-44.802,-24.724 -90.395,-67.025 -139.315,-85.468c-71.672,-27.02 -75.541,1.086 -198.625,-14.278c-74.562,-9.307 -112.969,-47.204 -243.846,-40.212c-142.844,7.631 -253.663,40.933 -460.878,1.362c-157.042,-29.99 -172.281,21.194 -197.312,86.434c-19.666,51.257 -61.81,29.692 -71.547,16.246c-51.768,-71.491 -1.391,-162.87 5.377,-175.147c54.734,-99.284 139.922,-153.95 140.711,-155.716c0.481,-1.076 -0.242,-12.794 -0.73,-13.219c-0.901,-0.785 -69.187,-4.879 -102.187,-5.63c-130.542,-2.968 -134.032,-8.541 -183.838,-29.518c-56.572,-23.827 -149.715,27.974 -116.96,81.919c17.958,29.576 64.471,39.004 65.307,39.3c50.62,17.932 34.089,61.185 10.46,69.742c-20.404,7.388 -137.013,1.6 -148.911,1.009c-89.944,-4.465 -89.691,-6.013 -147.758,-10.008c-98.077,-6.748 -147.83,-14.299 -182.594,-17.375c-79.901,-7.07 -79.831,-7.427 -86.796,-7.717c-211.321,-8.785 -404.387,89.908 -590.111,3.704c-74.728,-34.685 -71.845,-87.905 -139.517,-66.775c-33.116,10.34 -58.235,12.341 -70.215,14.045c-84.01,11.95 -83.917,12.144 -94.999,13.249c-50.089,4.997 -60.242,7.702 -69.522,8.579c-147.341,13.923 -254.264,33.873 -339.341,-1.958c-38.774,-16.33 -37.565,-41.374 -95.51,-42.181c-29.701,-0.414 -103.982,5.878 -113.006,6.643c-228.769,19.378 -456.293,20.883 -523.106,58.163c-38.805,21.653 -29.206,33.187 -65.132,59.215c-51.375,37.222 -127.866,32.416 -254.836,38.644c-191.877,9.412 -191.936,7.564 -208.613,8.485c-104.248,5.753 -1149.617,37.764 -1285.942,23.987c-127.757,-12.912 -108.97,-130.102 -35.282,-153.625c11.372,-3.63 11.115,-4.217 12.126,-4.427c1.155,-0.239 2.346,1.008 3.475,0.666c1.509,-0.457 2.493,-1.932 3.767,-2.861c4.867,-3.547 6.892,-3.59 4.577,-9.226c-2.403,-5.85 -37.438,-11.201 -40.794,-11.714c-69.303,-10.586 -159.692,5.684 -216.175,39.227c-84.136,49.965 -80.534,72.823 -193.486,116.938c-80.458,31.424 -234.626,48.914 -268.879,50.509c-119.937,5.587 -159.682,4.647 -173.568,4.319c-250.837,-5.928 -312.726,-31.157 -336.361,-55.215c-24.575,-25.015 -21.538,-32.927 -22.454,-197.324c-0.324,-58.176 1.844,-57.979 1.586,-112.989c-2.115,-450 0.815,-450.097 -3.646,-478.667c-4.012,-25.695 -0.461,-25.671 0.864,-51.698c3.374,-66.273 2.954,-285.93 3.046,-295.327c1.277,-131.044 2.892,-135.417 18.392,-147.2c7.361,-5.596 11.326,-8.61 113.024,-24.154c89.573,-13.691 89.349,-14.865 104.328,-16.946c39.027,-5.423 56.662,-7.046 64.522,-17.127c14.92,-19.134 13.755,-201.72 117.641,-246.325c42.463,-18.232 61.514,-5.27 73.257,-24.296c6.291,-10.192 99.388,-367.597 113.947,-395.048c30.464,-57.436 67.429,-47.423 134.258,-50.817c83.67,-4.25 97.141,-1.754 107.555,-14.759c7.391,-9.231 16.344,-117.434 12.842,-219.205c-0.849,-24.685 -5.882,-27.291 -42.53,-30.908c-66.121,-6.526 -144.229,5.874 -130.549,-108.281c7.634,-63.701 34.655,-72.537 52.872,-77.589c158.856,-44.056 159.379,-42.029 173.171,-45.929c70.499,-19.936 71.292,-16.783 77.25,-19.022c1.374,-0.516 2.132,-2.149 3.507,-2.665c2.551,-0.219 5.128,0.429 7.679,0.21c8.114,-0.696 175.207,-41.503 190.417,-45.218c35.169,-8.589 34.216,-12.786 53.235,-43.596c106.035,-171.775 107.133,-170.848 116.2,-185.857c6.288,-10.409 74.95,-124.071 78.489,-130.174c13.277,-22.896 120.847,-208.404 171.213,-283.089c2.298,-3.408 97.726,-150.829 178.98,-228.799c72.965,-70.016 131.242,-133.39 304.732,-200.622c131.759,-51.06 289.102,-119.818 400.253,-163.98c383.67,-152.437 383.526,-152.744 417.486,-164.367c58.666,-20.078 70.66,-15.059 260.816,-17.471c14.543,-0.185 172.225,-2.185 181.776,-2.978c1.212,-0.101 1.929,-1.712 3.136,-1.866c1.391,-0.178 3.087,1.909 4.102,0.941c1.309,-1.248 0.304,-3.606 0.569,-5.395c0.382,-2.581 1.776,-5.129 1.372,-7.707c-0.26,-1.659 -6.747,-10.49 -15.95,-26.781c-55.054,-97.449 -25.396,-203.744 51.557,-276.869c132.718,-126.115 243.799,55.095 252.961,138.26c11.87,107.744 -36.876,157.295 -38.054,165.1c-0.561,3.715 2.781,12.893 3.736,13.372c6.877,3.446 327.553,-4.817 511.218,37.309c124.516,28.559 213.133,124.033 240.125,193.923c15.665,40.56 -18.828,35.462 -24.928,59.384c-3.93,15.413 8.537,170.51 13.848,181.126c13.588,27.163 114.358,-11.398 263.893,108.831c145.504,116.988 166.619,220.443 185.818,336.059c2.924,17.608 2.043,32.165 25.016,33.49c18.037,1.04 18.037,0.881 225.84,0.837c116.963,-0.025 154.635,-8.89 222.847,47.678c20.195,16.748 52.419,61.781 60.117,76.75c25.533,49.65 27.922,80.203 29.498,84.957c5.568,16.802 11.614,16.192 95.968,14.44c542.35,-11.265 696.149,-2.847 808.364,-6.093c29.319,-0.848 30.371,-8.167 61.468,-42.714c47.996,-53.319 136.38,-128.393 207.089,-175.66c193.204,-129.152 315.108,-172.059 408.704,-209.009c136.81,-54.01 411.928,-119.035 582.706,-139.515c247.105,-29.633 368.598,-26.863 391.365,-27.126c27.145,-0.196 204.697,-1.48 339.158,10.362c11.754,1.035 152.952,14.999 243.104,36.741c42.661,10.288 61.934,11.749 72.653,22.756c9.835,10.099 11.258,23.128 12.801,29.34c31.786,127.941 34.439,223.07 35.647,243.002c9.591,158.184 -22.771,337.525 -26.441,347.22c-8.688,22.95 -93.585,110.739 -134.253,160.129c-118.614,144.056 -140.477,179.742 -170.409,221.648c-173.63,243.087 -199.357,308.114 -261.606,416.905c-68.984,120.563 -130.035,276.932 -148.801,330.417c-13.867,39.524 -15.045,38.983 -20.537,53.754c-0.547,1.47 -12.426,33.422 16.223,11.015c84.427,-66.03 362.392,-112.808 546.728,-29.066c32.743,14.875 76.056,47.067 86.705,69.823c26.384,56.38 -34.355,67.638 -107.354,144.71c-20.992,22.163 -42.103,40.588 -41.117,55.208c1.081,16.017 66.678,72.326 80.632,129.862c27.112,111.794 -32.074,185.245 -54.69,217.085c-90.482,127.389 -227.187,171.508 -233.895,174.093c-3.861,1.488 -34.298,6.924 -20.455,19.443c16.017,14.484 43.214,14.961 93.789,73.533c14.863,17.213 50.701,55.827 23.884,82.641c-23.928,23.924 -47.147,1.07 -96.02,-13.675c-180.412,-54.429 -260.263,57.293 -298.956,97.697c-1.06,1.107 -11.172,11.666 -5.694,18.285c4.752,5.742 19.321,-0.643 51.558,-0.822c17.723,-0.099 110.355,-0.614 205.224,83.458c66.366,58.813 125.593,162.278 50.245,242.684c-35.781,38.183 -63.804,38.226 -65.083,48.721c-0.9,7.378 -0.09,7.617 5.928,12.071c37.593,27.819 91.495,39.538 117.29,46.787c11.055,12.197 9.919,13.264 23.235,22.959c44.361,32.299 66.599,65.725 76.033,77.492c4.599,9.243 5.208,8.834 11.412,24.207l13.424,33.254c2.139,4.493 13.217,18.054 14.395,18.558c5.661,2.423 10.36,-15.267 10.77,-16.811c4.663,-17.554 5.79,-17.168 6.181,-18.694c0.644,-2.515 -0.274,-5.265 0.37,-7.78c0.388,0.273 8.621,2.158 15.471,10.877c10.796,13.743 10.699,13.665 10.85,13.744c2.07,1.094 5.035,0.258 6.935,-1.109c10.745,-7.729 -7.318,-29.718 -8.994,-31.758c-7.428,-9.043 -6.71,-9.299 -12.287,-19.375c8.406,-7.231 8.671,-6.778 14.949,-15.759c13.171,-18.843 14.059,-17.944 15.152,-19.596c0.23,-0.347 -0.73,-0.623 2.027,-4.794c3.364,-5.09 4.024,-4.361 7.427,-9.509Zm-1415.818,-3130.237c24.047,-48.396 25.533,-47.583 27.131,-51.994c1.205,-3.324 -1.332,-14.024 -2.501,-14.647c-3.794,-2.022 -15.487,3.084 -16.743,3.632c-12.091,5.28 -163.925,60.862 -268.101,116.616c-164.487,88.032 -242.73,155.686 -281.049,187.182c-34.897,28.683 -36.007,27.355 -38.449,30.424c-1.328,1.669 -13.049,23.075 22.984,13.512c17.289,-4.589 17.235,-4.157 34.877,-6.918c127.374,-19.938 127.439,-19.143 138.501,-20.935c29.55,-4.785 219.877,-27.647 226.866,-28.233c42.377,-3.556 50.113,0.434 66.403,-38.766c20.63,-49.644 85.67,-181.659 90.082,-189.874Zm1388.239,137.594c-1.524,2.438 -1.92,2.152 -19.762,30.016c-21.809,34.058 -21.905,37.081 -22.024,40.787c-0.456,14.281 26.229,26.42 51.618,44.784c43.037,31.129 44.181,29.317 86.918,60.808c24.872,18.327 31.868,23.272 35.451,21.976c8.996,-3.256 8.326,-4.773 9.76,-14.335c1.999,-13.335 12.19,-107.531 13.329,-156.771c2.498,-107.979 -2.266,-144.107 -3.904,-156.525c-0.566,-4.295 -2.658,-15.46 -5.376,-51.297c-0.116,-1.531 -1.119,-14.751 -4.18,-18.73c-1.983,-2.578 -5.093,-4.593 -8.302,-5.129c-1.291,-0.216 -0.991,2.507 -1.928,3.422c-3.496,3.416 -4.977,2.123 -8.884,10.235c-9.179,19.056 -56.099,89.402 -56.421,89.919c-5.107,8.193 -23.4,37.544 -66.294,100.841Zm-710.445,-334.558c-158.757,11.13 -323.344,41.693 -407.775,61.757c-115.152,27.364 -136.591,31.546 -147.38,48.906c-0.208,0.335 -134.94,278.535 -134.909,286.182c0.092,22.228 38.449,7.751 133.757,2.336c44.526,-2.53 176.932,-13.733 225.659,-15.241c20.891,-0.647 20.801,-2.263 261.043,-10.703c32.664,-1.148 30.108,-10.4 54.484,-62.29c5.684,-12.101 47.33,-94.413 64.607,-132.612c25.413,-56.185 88.148,-172.012 85.454,-180.503c-3.807,-11.999 -9.332,-5.655 -134.94,2.168Zm112.855,368.695c322.302,3.301 322.045,8.784 390.85,13.058c26.483,1.645 26.381,0.509 52.64,3.922c22.655,2.945 32.722,10.472 51.287,-24.071c10.89,-20.264 47.806,-75.3 77.627,-122.083c5.391,-8.457 43.573,-68.358 68.614,-104.923c0.362,-0.528 53.386,-79.93 54.09,-85.585c1.083,-8.698 -8.255,-14.585 -9.497,-14.926c-5.361,-1.471 -5.468,-0.7 -68.276,-12.905c-155.87,-30.29 -384.012,-32.404 -417.514,-32.714c-73.298,-0.679 -85.199,-4.429 -94.58,17.581c-0.605,1.42 -0.593,1.327 -7.596,17.741c-2.134,5.001 -3.635,10.294 -6.203,15.087c-0.587,1.096 -2.359,1.122 -3.039,2.163c-2.278,3.487 -0.97,3.974 -3.182,7.359c-0.691,1.122 -2.43,1.305 -3.121,2.427c-1.641,2.665 -0.565,3.2 -17.906,34.782c-7.852,14.3 -70.154,143.54 -75.686,153.151c-7.051,12.249 -6.496,12.329 -48.528,97.507c-2.838,5.751 -6.697,11.069 -8.696,17.163c-5.118,15.607 14.81,15.481 16.627,15.47c23.777,-0.15 23.646,-0.597 52.089,-0.201Z" style="fill:#224d93;"></path><path d="M5712.822,6755.671c-1.775,2.324 -3.549,4.648 -5.324,6.972c-8.543,-1.879 -8.422,-1.62 -16.88,-3.713c-31.356,-7.758 -131.543,-8.134 -227.022,29.833c-37.116,14.759 -32.929,27.723 -51.907,33.949c-14.491,4.754 -135.887,-1.603 -407.148,49.968c-220.133,41.851 -409.236,136.251 -419.266,141.543c-28.866,15.23 -29.854,0.632 -48.847,-24.376c-45.93,-60.475 -73.256,-99.341 -141.911,-153.769c-70.671,-56.026 -166.623,-80.332 -224.825,-82.152c-140.673,-4.4 -152.878,25.538 -171.696,-7.277c-18.513,-32.283 -22.84,-50.639 -68.066,-114.526c-8.227,-11.622 -60.598,-85.602 -127.306,-124.392c-135.496,-78.789 -290.438,-31.78 -346.638,-14.926c-219.587,65.854 -441.882,169.542 -842.304,254.427c-182.712,38.733 -260.328,30.619 -269.441,30.389c-40.948,-1.034 -34.897,-15.051 -77.551,-65.022c-7.319,-8.575 -57.823,-67.744 -98.885,-100.398c-116.414,-92.579 -247.39,-77.391 -275.226,-71.817c-41.583,8.326 -99.057,12.43 -208.137,52.7c-95.549,35.275 -95.291,35.635 -191.697,68.179c-165.119,55.739 -531.939,151.352 -635.346,169.67c-241.619,42.803 -300.448,19.066 -381.819,15.783c-120.504,-4.862 -232.947,-5.723 -373.856,39.259c-28.45,9.082 -25.238,-10.399 -25.025,-25.168c0.998,-68.978 0.53,-258.392 0.603,-260.694c0.326,-10.199 -0.421,-10.99 7.161,-17.643c5.142,-4.513 57.875,-11.247 70.315,-13.416c86.803,-15.13 179.756,-24.562 197.646,-40.428c35.723,-31.68 31.924,-84.959 44,-137.404c25.667,-111.472 54.101,-118.474 131.129,-109.902c86.974,9.679 86.779,10.157 173.905,17.95c38.825,3.473 222.881,19.935 486.993,15.752c705.102,-11.168 1276.726,-132.627 1338.039,-143.292c136.197,-23.69 458.527,-92.165 687.373,-152.716c320.713,-84.859 320.016,-87.318 347.937,-94.556c217.769,-56.446 947.663,-289.726 1017.031,-312.999c112.079,-37.602 111.944,-37.66 224.277,-74.642c303.041,-99.767 481.167,-162.552 775.424,-263.69c174.298,-59.907 173.968,-60.479 347.876,-121.214c401.138,-140.093 399.189,-145.378 434.462,-156.345c45.142,-14.035 350.848,-62.409 616.28,-87.541c292.247,-27.67 502.669,-34.883 582.072,-37.524c258.596,-8.599 576.992,0.027 616.756,3.705c51.842,4.794 60.806,-0.211 65.832,7.396c5.119,7.746 -2.878,16.828 -6.341,22.707c-263.812,447.876 -398.307,1041.088 -423.983,1139.554c-29.195,111.961 -44.252,247.227 -53.538,259.864c-7.615,10.364 -26.325,7.285 -59.65,7.148c-192.528,-0.794 -262.23,5.843 -321.715,9.325c-140.403,8.219 -334.692,45.966 -460.4,80.411c-263.989,72.335 -365.562,128.145 -449.834,177.529c-20.449,11.983 -21.436,0.853 -91.071,-35.325c-235.109,-122.147 -517.47,-138.266 -554.52,-139.473c-144.174,-4.698 -191.18,6.637 -208.055,8.187c-95.255,8.752 -243.42,55.157 -294.686,78.317c-49.669,22.438 -95.119,36.366 -87.511,75.308c6.362,32.566 56.078,28.561 68.855,28.964c219.433,6.927 326.93,89.694 396.1,140.426c1.551,1.137 18.94,13.892 19.129,14.555c0.621,2.182 -2.395,4.389 -1.774,6.571Z" style="fill:#fdfefe;"></path><path d="M5272.281,7358.017c68.287,-2.69 76.679,-19.644 313.31,-82.608c22.507,-5.989 212.898,-53.038 392.042,-63.796c66.69,-4.005 279.416,-30.98 608.946,90.287c230.87,84.961 321.956,150.316 425.767,209.553c9.725,5.549 13.243,7.557 118.376,74.678c30.976,19.776 89.413,61.749 97.088,67.261c44.006,31.607 53.967,20.443 131.178,111.581c16.04,18.933 38.984,34.545 34.586,43c-7.529,14.472 -11.837,2.307 -53.572,-21.995c-190.863,-111.14 -359.143,-220.82 -607.883,-303.909c-195.003,-65.138 -344.488,-91.165 -485.144,-109.689c-94.611,-12.46 -286.68,-27.625 -304.051,-23.28c-42.908,10.732 -41.878,66.679 8.081,71.213c14.617,1.327 14.797,-2.453 183.081,11.893c29.241,2.493 205.213,21.642 339.054,52.971c264.831,61.991 379.868,110.101 606.063,231.07c83.286,44.542 248.809,152.798 314.598,179.521c25.092,10.192 110.792,49.634 217.116,70.929c34.984,7.007 53.144,2.235 47.976,15.625c-3.361,8.707 -13.446,13.432 -20.456,18.369c-12.256,8.631 -97.889,68.936 -174.803,67.486c-73.422,-1.384 -110.124,-61.17 -157.745,-102.054c-52.152,-44.774 -89.958,-55.843 -162.147,-108.199c-121.612,-88.2 -178.975,-56.233 -262.292,-61.181c-84.359,-5.01 -81.487,-19.965 -164.562,-35.865c-35.443,-6.783 -65.487,-15.046 -200.271,-1.643c-40.846,4.062 -144.523,17.572 -260.952,11.983c-81.088,-3.893 -206.818,-47.085 -277.511,-12.236c-3.261,1.607 -6.319,3.605 -9.58,5.212c-4.323,-0.675 -8.647,-1.349 -12.97,-2.024c-0.046,-2.488 -4.196,-3.655 -4.243,-6.143c-0.121,-6.48 3.062,-4.674 7.462,-9.342c29.914,-31.741 47.477,-56.973 98.085,-93.068c46.445,-33.126 130.308,-57.802 110.647,-105.712c-11.745,-28.621 -65.827,-24.053 -129.086,-29.949c-205.434,-19.147 -210.238,2.409 -286.228,-33.105c-88.33,-41.28 -194.186,22.657 -217.42,80.249c-26.439,65.536 15.869,92.651 -0.294,104.765c-4.476,3.354 -80.002,-4.574 -113.587,-6.146c-63.496,-2.974 -63.077,-5.878 -104.382,-8.693c-68.559,-4.672 -116.541,-16.968 -225.722,-19.196c-163.119,-3.329 -310.11,49.434 -416.957,38.929c-118.861,-11.686 -149.593,-51.714 -174.238,-74.962c-66.572,-62.8 -128.385,-21.259 -200.159,-13.033c-131.033,15.018 -130.442,19.176 -181.794,23.911c-88.449,8.156 -212.021,27.828 -268.864,4.087c-54.115,-22.601 -48.722,-64.49 -183.443,-50.948c-60.817,6.113 -60.726,5.053 -121.579,9.735c-62.64,4.819 -85.989,5 -121.751,7.531c-112.184,7.941 -112.025,7.092 -121.748,7.949c-60.789,5.362 -60.859,3.777 -121.274,12.274c-128.36,18.053 -157.067,47.798 -186.488,81.913c-34.726,40.266 -74.104,35.035 -178.701,40.33c-91.298,4.622 -91.203,3.564 -182.583,7.782c-249.422,11.512 -1334.913,43.504 -1374.237,25.771c-6.42,-2.895 -4.8,-12.75 -3.503,-14.296c3.565,-4.251 43.968,-12.259 47.861,-13.03c6.512,-1.291 65.516,-12.986 44.812,-69.847c-27.691,-76.051 -127.455,-83.451 -140.535,-84.421c-170.351,-12.635 -263.315,61.656 -310.401,96.869c-94.207,70.452 -157.099,89.321 -341.367,108.981c-170.459,18.187 -429.325,2.36 -470.147,-24.367c-9.323,-6.104 -8.254,-12.391 -7.792,-131.346c0.372,-95.745 -3.864,-102.55 17.688,-112.314c40.907,-18.532 103.853,-30.39 129.877,-36.208c57.952,-12.957 184.081,-21.397 260.92,-16.834c193.877,11.514 215.247,11.326 416.482,-21.376c13.911,-2.261 145.712,-30.372 201.298,-45.332c8.954,-2.41 83.964,-22.597 112.025,-29.725c29.426,-7.474 217.185,-60.024 372.783,-115.512c119.985,-42.788 194.732,-83.719 287.844,-93.571c227.668,-24.09 307.551,38.519 359.877,174.063c11.134,28.841 22.113,48.772 -3.728,50.849c-75.904,6.101 -241.624,27.414 -321.492,44.73c-134.801,29.225 -156.393,37.42 -190.404,46.618c-74.005,20.013 -285.662,87.213 -312.973,103.158c-22.037,12.866 -16.414,39.278 -15.42,41.958c16.011,43.176 74.265,11.946 84.082,8.31c110.38,-40.887 287.986,-94.325 409.231,-119.024c13.102,-2.669 119.55,-24.354 164.305,-30.639c9.75,-1.369 109.588,-15.389 121.936,-16.673c6.95,-0.723 67.715,-7.044 86.911,-8.733c0.838,-0.074 97.875,3.755 485.994,-122.31c287.108,-93.256 630.887,-250.54 721.348,-294.64c191.48,-93.347 297.278,-170.084 479.063,-189.116c80.885,-8.468 203.277,31.573 276.602,72.488c87.321,48.725 139.381,102.32 187.295,159.593c9.236,11.04 28.449,28.041 18.959,43.302c-5.368,8.632 -94.724,82.072 -159.157,160.972c-52.418,64.187 -80.7,153.076 -85.818,198.51c-3.997,35.483 30.122,47.653 47.699,39.978c36.691,-16.022 19.196,-54.364 57.412,-133.826c37.983,-78.975 182.579,-203.735 193.746,-213.227c73.25,-62.263 86.262,-68.754 123.435,-85.14c9.012,-3.972 99.583,-49.424 208.732,-86.814c231.793,-79.404 496.27,-99.103 565.278,-101.575c64.761,-2.32 67.503,-2.743 85.558,16.555c65.833,70.367 71.567,64.091 76.999,70.43c0.759,0.886 7.443,8.687 1.889,14.458c-1.749,1.817 -23.465,0.177 -25.499,0.024c-18.708,-1.413 -116.08,1.562 -182.719,6.915c-78.55,6.311 -213.229,28.964 -269.823,43.582c-127.143,32.842 -146.811,43.866 -225.895,79.576c-44.879,20.265 -113.362,67.894 -152.531,108.644c-12.027,12.512 -84.397,87.803 -108.724,187.729c-11.302,46.423 40.585,59.563 61.825,34.967c21.568,-24.976 21.544,-199.709 339.545,-311.331c124.442,-43.681 302.966,-64.014 320.658,-65.698c114.69,-10.919 144.454,-9.154 156.725,-9.683c57.565,-2.482 172.757,6.465 186.543,-55.625c10.739,-48.369 -30.289,-55.882 -114.921,-141.791c-15.802,-16.041 -23.458,-26.378 -1.456,-31.409c81.555,-18.649 156.477,-28.056 294.429,17.504c46.231,15.268 44.702,18.655 53.172,21.444c5.815,1.915 5.794,0.156 10.039,-4.373c0.824,-0.879 3,-0.69 3.08,-1.892c0.285,-4.307 -5.655,-14.974 -6.332,-16.189c-31.391,-56.369 -91.624,-190.589 -301.701,-281.207c-105.449,-45.486 -143.596,-38.696 -147.359,-42.877c-0.665,-0.739 -0.372,-12.572 0.358,-13.406c1.514,-1.728 23.279,-4.76 58.149,-14.023c25.737,-6.837 164.912,-43.809 331.247,-32.834c244.127,16.107 362.821,62.843 443.96,94.868c22.278,8.793 135.227,53.374 257.148,153.308c214.436,175.764 417.499,484.428 440.389,515.815c94.821,130.026 126.858,189.906 160.273,229.38c18.99,22.434 19.041,22.293 20.454,24.413c6.723,10.089 10.518,14.946 -1.202,17.887c-3.905,0.98 -24.281,-15.637 -26.226,-17.223c-79.517,-64.847 -256.524,-160.601 -398.82,-219.558c-188.186,-77.971 -288.774,-103.842 -401.319,-124.839c-151.21,-28.21 -352.084,-15.665 -468.242,-0.364c-30.587,4.029 -30.333,4.522 -60.733,8.748c-214.403,29.811 -503.96,130.952 -519.711,139.846c-13.737,7.757 -19.521,27.38 -15.844,38.477c4.887,14.749 6.623,14.308 21.125,20.187Z" style="fill:#fcfefe;"></path><path d="M137.73,7420.646c-1.451,0.46 -18.136,5.752 -18.136,5.752c-9.229,2.908 -34.076,13.436 -40.575,5.609c-3.702,-4.458 -2.712,-5.224 -2.876,-110.562c-0.041,-26.419 -0.48,-309.553 0.568,-330.238c1.19,-23.502 7.135,-25.149 60.564,-41.78c192.37,-59.88 376.722,-22.567 486.189,-22.763c77.955,-0.139 215.494,1.776 686.733,-135.082c226.67,-65.829 226.523,-66.1 392.007,-127.989c227.352,-85.028 318.364,-45.791 328.387,-42.941c69.028,19.624 98.096,54.018 126.243,80.025c30.619,28.29 28.294,30.418 51.226,54.288c12.237,12.738 6.119,20.556 -11.418,19.191c-37.16,-2.892 -370.167,-28.962 -511.528,96.794c-24.179,21.51 -57.456,51.718 -28.542,78.095c10.945,9.985 35.418,17.537 58.492,-4.888c24.954,-24.252 23.717,-25.865 53.952,-42.988c113.387,-64.217 384.525,-73.151 505.693,-39.861c111.026,30.503 152.244,-8.557 173.351,-12.085c6.326,-1.058 6.435,0.248 79.404,-11.051c135.807,-21.031 333.169,-74.867 347.818,-79.084c39.313,-11.318 256.45,-73.829 486.258,-158.291c47.784,-17.562 120.001,-39.509 130.512,-42.703c263.166,-79.975 351.286,75.945 401.808,153.436c28.457,43.647 27.143,49.85 26.139,54.586c-2.838,13.389 -22.894,3.851 -124.322,33.281c-126.861,36.81 -231.867,105.787 -391.921,180.966c-65.673,30.847 -276.377,131.065 -582.31,242.878c-88.472,32.335 -245.455,81.857 -311.581,99.465c-0.42,0.112 -153.572,43.825 -173.897,40.71c-17.296,-2.65 -9.713,-11.466 -51.371,-103.332c-11.901,-26.245 -53.747,-104.027 -122.826,-138.37c-10.647,-5.293 -92.462,-55.698 -269.128,-41.288c-5.787,0.472 -87.826,10.067 -148.222,31.694c-85.663,30.675 -322.975,128.511 -678.239,215.57c-457.944,112.222 -486.465,45.885 -729.572,62.311c-106.869,7.221 -160.799,20.875 -198.879,30.648Z" style="fill:#fdfefe;"></path><path d="M3630.621,4789.386c78.324,-1.417 78.138,-1.489 156.562,-2.441c82.733,-1.004 409.933,-4.976 1034.236,-1.465c327.783,1.843 327.798,-1.221 356.25,0.427c36.334,2.104 90.663,46.719 115.484,109.714c11.348,28.801 16.006,46.097 -10.757,47.405c-173.51,8.477 -236.788,16.892 -261.446,18.922c-171.098,14.084 -205.761,27.079 -217.707,24.284c-26.262,-6.143 8.533,-88.94 -26.847,-122.737c-16.444,-15.708 -20.344,-7.721 -328.702,-7.831c-82.357,-0.029 -109.262,-4.639 -126.659,25.415c-11.29,19.503 -5.291,120.253 -7.284,171.832c-1.179,30.531 -10.179,28.032 -40.047,33.943c-22.91,4.534 -64.339,14.145 -69.919,15.439c-2.05,0.476 -21.804,5.058 -25.663,-5.795c-0.95,-2.673 -0.463,-24.043 -0.416,-26.134c0.285,-12.518 3.137,-137.714 2.577,-156.49c-0.195,-6.524 -1.559,-52.25 -46.182,-67.257c-3.254,-1.094 -3.221,-4.158 -173.122,-2.695c-196.266,1.69 -197.91,-0.493 -216.102,11.031c-38.864,24.62 -26.575,63.607 -35.216,198.08c-8.977,139.695 3.448,158.025 -26.503,166.185c-16.069,4.378 -136.039,31.714 -147.882,34.413c-24.362,5.551 -47.714,14.76 -51.272,-1.017c-1.67,-7.405 5.535,-146.214 6.867,-217.025c1.251,-66.532 6.481,-106.859 -24.921,-122.375c-30.46,-15.05 -62.507,-2.059 -192.249,22.498c-34.447,6.52 -34.532,5.268 -69.038,12.06c-128.995,25.387 -129.389,22.453 -312.193,55.814c-64.939,11.851 -64.915,10.925 -70.546,11.956c-112.13,20.512 -130.177,15.944 -153.368,47.866c-19.93,27.433 -15.257,49.554 -20.615,276.379c-2.021,85.548 -0.543,102.973 -9.871,110.463c-3.419,2.745 -23.026,7.297 -25.071,7.771c-75.701,17.572 -271.809,55.593 -295.493,60.184c-77.33,14.992 -78.373,14.186 -83.709,10.061c-7.338,-5.673 -5.013,-18.444 -3.37,-92.872c0.673,-30.487 0.499,-30.373 1.214,-60.816c5.273,-224.645 5.582,-224.564 3.216,-243.937c-2.552,-20.894 -19.95,-34.278 -38.138,-35.577c-26.135,-1.867 -201.586,52.969 -270.142,68.368c-74.842,16.811 -70.422,36.472 -71.861,80.694c-0.883,27.137 -11.034,339.081 -11.04,339.21c-1.022,22.488 -13.316,22.914 -46.322,28.821c-11.82,2.115 -124.329,22.249 -147.949,25.338c-66.304,8.672 -87.536,22.736 -90.708,-1.469c-0.465,-3.55 0.169,-99.117 2.376,-200.637c2.03,-93.377 10.572,-125.083 -34.322,-136.047c-6.786,-1.657 -16.255,-3.97 -85.851,15.933c-38.454,10.997 -211.846,53.705 -304.359,77.702c-75.396,19.557 -53.921,54.06 -65.851,147.184c-7.962,62.15 -15.113,139.963 -17.643,156.535c-4.661,30.535 -12.401,28.954 -47.356,31.844c-47.327,3.913 -56.892,6.512 -61.159,5.966c-11.522,-1.475 -13.277,-10.908 -13.545,-12.35c-0.256,-1.377 7.248,-50.383 8.449,-104.143c3.327,-148.815 -7.466,-171.374 -14.246,-180.78c-24.117,-33.456 -145.588,-28.437 -154.195,-36.255c-6.981,-6.342 -10.401,-31.709 10.459,-39.592c10.37,-3.919 303.968,-74.684 433.454,-106.961c415.864,-103.664 416.288,-101.867 452.381,-111.149c87.689,-22.551 260.774,-63.106 268.261,-65.375c35.036,-10.621 127.002,-31.06 173.958,-43.104c203.987,-52.324 701.367,-173.457 703.919,-174.122c102.484,-26.692 149.407,-26.964 191.593,-32.855c44.356,-6.194 44.409,-4.267 78.274,-7.952c153.453,-16.701 439.809,-28.41 547.329,-30.482Z" style="fill:#fbfdfe;"></path><path d="M8086.441,7046.074c-7.062,6.874 -6.937,6.805 -14.757,12.665c-174.664,-7.903 -290.192,169.755 -312.786,219.138c-14.306,31.268 -36.457,69.014 -11.922,90.872c30.969,27.59 57.679,-14.143 108.043,-28.968c151.94,-44.724 251.717,88.437 265.031,114.42c61.415,119.851 -129.458,99.887 -102.874,189.69c8.568,28.942 47.05,56.51 48.277,57.329c14.237,9.503 19.295,7.373 33.516,19.572c1.155,0.991 3.957,0.964 3.832,2.48c-0.223,2.716 -3.348,4.338 -4.592,6.762c-0.729,1.421 0.187,3.929 -1.25,4.626c-5.177,2.51 -26.848,-8.595 -85.833,-12.694c-273.748,-19.024 -313.677,23.921 -486.411,-2.177c-45.162,-6.823 -111.131,-35.341 -140.618,-57.54c-3.973,-2.991 -48.247,-36.323 -49.376,-37.775c-0.769,-0.989 -7.701,-9.905 -1.125,-15.626c5.212,-4.533 85.508,14.796 165.527,-16.087c47.527,-18.342 57.721,-30.703 63.177,-53.31c3.247,-13.454 9.695,-57.148 10.431,-62.134c11.605,-78.637 12.789,-78.282 26.259,-156.459c9.613,-55.792 9.537,-55.764 10.42,-60.604c26.957,-147.815 73.76,-359.499 80.649,-390.658c26.216,-118.574 101.462,-423.504 131.905,-477.046c49.61,-87.257 118.215,-117.363 135.174,-126.369c116.771,-62.015 309.851,-44.761 332.449,-41.827c84.397,10.957 145.66,44.033 148.192,53.821c5.002,19.339 -17.031,14.873 -82.101,84.268c-68.052,72.576 -76.98,100.446 -21.525,166.97c12.147,14.572 83.362,80.612 44.208,175.832c-25.304,61.537 -97.103,126.853 -108.135,136.156c-92.684,78.149 -219.99,91.852 -236.644,139.547c-14.434,41.335 24.35,53.327 52.859,65.125Z" style="fill:#fdfefe;"></path><path d="M2958.174,4591.885c0.685,-4.879 5.099,-36.319 11.373,-60.529c20.242,-78.103 35.396,-127.145 67.958,-158.568c41.197,-39.757 61.53,-26.021 297.744,-29.505c461.711,-6.811 461.668,-1.365 608.501,-7.963c356.642,-16.027 455.426,-25.824 539.196,3.657c46.878,16.497 112.867,71.044 138.849,96.65c91.168,89.851 99.281,158.525 104.96,182.575c18.939,80.205 15.204,84.264 10.319,89.572c-5.929,6.442 -13.867,4.566 -63.388,4.389c-69.532,-0.248 -682.093,-2.436 -869.161,1.327c-578.194,11.631 -775.987,36.294 -843.003,44.65c-1.692,0.211 -16.691,2.081 -19.443,-8.725c-4.15,-16.298 14.296,-144.989 16.094,-157.529Z" style="fill:#fbfdfe;"></path><path d="M3691.543,3971.326c-67.337,-1.409 -292.221,2.422 -634.466,1.546c-40.962,-0.105 -61.577,-1.641 -62.168,54.514c-0.537,51.055 0.41,223.908 0.516,243.378c0.193,35.274 -8.422,34.065 -41.319,46.866c-41.187,16.026 -43.632,25.07 -53.244,13.788c-2.192,-2.572 -2.671,-2.974 -2.074,-95.427c1.292,-199.967 8.118,-206.597 -13.935,-220.293c-18.734,-11.635 -38.223,0.03 -200.31,66.794c-172.057,70.87 -172.755,71.39 -185.757,81.078c-34.109,25.415 -28.932,34.266 -29.132,159.351c-0.319,199.064 6.229,202.648 -6.494,213.819c-3.456,3.034 -135.922,71.146 -144.805,71.749c-9.611,0.653 -9.739,-14.552 -9.752,-16.055c-0.176,-20.863 1.715,-20.775 4.079,-260.765c0.289,-29.307 0.083,-43.81 -18.606,-55.735c-15.686,-10.009 -27.227,-1.683 -115.557,36.597c-30.245,13.108 -150.703,68.263 -181.328,80.989c-45.877,19.064 -54.854,31.467 -58.055,35.89c-14.726,20.346 -11.459,24.258 -13.321,232.452c-1.388,155.12 3.904,157.034 -7.2,173.943c-2.633,4.01 -79.643,59.074 -94.78,70.686c-13.346,10.239 -13.715,9.639 -168.162,126.228c-6.729,5.079 -10.341,7.43 -25.1,18.794c-50.681,39.022 -52.763,38.199 -69.048,42.312c-85.956,21.709 -86.459,18.863 -172.448,40.52c-29.949,7.543 -39.278,13.022 -43.382,11.338c-8.941,-3.669 -6.704,-6.523 -2.253,-14.949c3.8,-7.194 6.003,-5.79 54.536,-85.843c246.548,-406.672 300.457,-513.891 416.584,-643.443c18.028,-20.112 75.377,-91.461 180.751,-159.135c19.993,-12.84 41.091,-21.911 141.214,-65.386c45.103,-19.585 642.872,-261.715 694.153,-280.964c63.53,-23.846 122.181,-56.187 174.327,-56.754c62.304,-0.677 127.543,2.394 330.193,-3.112c116.597,-3.168 427.18,-2.729 573.659,8.357c100.487,7.605 237.902,7.757 329.467,88.248c36.485,32.072 72.23,81.575 60.912,93.934c-4.158,4.541 -18.36,3.113 -86.22,1.441c-109.905,-2.709 -254.065,-14.285 -270.811,-3.011c-20.493,13.797 -18.487,20.613 -18.192,132.703c0.218,82.787 2.835,96.517 -6.162,104.724c-6.02,5.491 -46.587,5.378 -52.475,5.481c-1.852,0.033 -17.971,0.317 -21.783,-7.844c-4.91,-10.512 2.069,-237.668 -2.939,-259.122c-7.712,-33.039 -34.244,-30.686 -88.247,-30.399c-30.496,0.162 -30.345,-0.008 -60.865,0.715Z" style="fill:#fcfdfe;"></path><path d="M2988.516,7420.409c92.795,-28.365 93.174,-26.562 200.204,-60.142c321.598,-100.898 385.196,-172.381 451.628,-201.739c38.346,-16.946 123.264,-35.302 137.975,-37.728c18.053,-2.977 122.484,-34.294 212.028,58.404c73.491,76.079 55.126,141.536 40.539,177.169c-16.547,40.421 -63.838,80.242 -86.769,96.156c-42.828,29.722 -64.139,39.603 -77.995,44.786c-3.774,1.412 -31.893,11.93 -50.108,-5.064c-25.705,-23.984 17.809,-62.928 22.125,-67.589c79.419,-85.769 21.354,-115.565 0.807,-118.266c-75.58,-9.937 -157.713,56.657 -235.196,109.295c-132.946,90.317 -377.967,87.34 -642.384,113.135c-271.648,26.5 -271.668,26.059 -295.269,28.546c-6.261,0.66 -72.493,7.641 -78.243,8.413c-80.737,10.84 -80.293,12.512 -87.303,13.398c-2.18,0.276 -29.352,3.712 -23.856,-13.625c2.143,-6.759 21.672,-10.665 23.726,-11.076c59.523,-11.904 306.639,-79.668 488.092,-134.073Z" style="fill:#224e96;"></path><path d="M2771.135,4796.03c-54.698,14.948 -715.201,174.057 -800.32,196.745c-9.625,2.566 -9.958,0.373 -121.059,29.127c-34.889,9.03 -66.101,22.918 -70.286,22.24c-1.096,-0.177 -7.555,-7.345 -7.561,-8.347c-0.041,-7.036 28.774,-20.382 49.889,-36.343c113.771,-86.002 247.105,-177.176 270.217,-190.331c20.239,-11.52 18.246,-14.98 157.513,-84.951c31.111,-15.631 337.423,-161.494 374.379,-181.268c33.183,-17.755 96.286,-46.927 104.74,-50.835c71.176,-32.904 151.063,-65.436 164.321,-70.834c1.955,-0.796 22.085,-8.993 24.844,-8.878c1.272,0.053 1.288,2.251 2.247,3.087c2.691,2.348 6.934,2.389 4.74,11.491c-0.863,3.58 -30.339,71.323 -48.972,226.39c-6.923,57.614 -3.517,104.836 -14.63,116.579c-5.157,5.449 -6.452,6.818 -90.062,26.131Z" style="fill:#fcfefe;"></path><path d="M2909.959,5394.969c-76.918,17.339 -152.038,32.368 -165.292,35.02c-10.509,2.103 -11.468,6.388 -19.816,-0.229c-7.431,-5.89 -7.109,-6.729 -6.889,-20.422c0.988,-61.292 5.912,-239.972 6.487,-260.838c0.418,-15.151 -0.863,-31.531 6.947,-38.783c9.658,-8.969 61.798,-12.597 168.776,-32.978c19.22,-3.662 243.259,-43.228 286.955,-51.507c4.182,-0.792 88.62,-13.738 139.287,-24.867c21.067,-4.627 63.689,-11.589 69.244,-12.496c11.091,-1.811 14.109,-6.918 19.084,3.158c6.385,12.929 2.657,13.683 1.399,88.096c-0.258,15.247 -3.022,178.866 -6.255,190.512c-4.461,16.07 -15.096,17.068 -22.365,18.714c-152.445,34.509 -152.36,34.247 -477.563,106.62Z" style="fill:#fdfefe;"></path><path d="M649.285,6220.972c-4.81,-0.384 -47.516,-3.79 -59.95,-6.681c-1.621,-0.377 -16.613,-3.863 -15.49,-13.882c0.416,-3.712 94.536,-351.008 96.012,-355.622c6.755,-21.117 11.453,-21.937 58.079,-22.898c54.233,-1.118 62.434,-3.744 139.175,-8.461c83.151,-5.111 135.192,-12.873 164.634,-15.254c38.338,-3.1 57.617,-10.34 51.254,19.441c-34.087,159.546 -33.924,159.469 -36.99,173.31c-39.034,176.233 -38.416,176.256 -42.262,191.463c-8.29,32.779 -8.422,52.096 -24.664,57.324c-3.899,1.255 -95.365,-2.175 -103.654,-2.485c-79.051,-2.964 -78.797,-4.734 -226.144,-16.255Z" style="fill:#fcfefe;"></path><path d="M2539.428,5635.652c-4.058,44.094 -30.663,256.678 -33.364,286.08c-1.597,17.38 -8.239,71.962 -9,78.215c-11.554,94.95 -11.305,95.619 -16.79,101.785c-8.898,10.004 -79.936,18.373 -152.715,32.205c-38.899,7.393 -127.3,20.799 -130.943,20.77c-15.499,-0.122 -14.882,-13.509 -14.803,-15.204c0.357,-7.737 1.235,-7.581 12.484,-96.004c3.211,-25.244 11.659,-79.45 12.734,-86.35c1.514,-9.718 -0.757,-9.982 15.883,-121.907c0.824,-5.545 -0.493,-5.688 8.67,-69.532c2.181,-15.197 8.126,-63.954 8.805,-69.519c7.144,-58.589 9.014,-82.16 15.456,-88.624c8.999,-9.028 77.189,-17.992 140.943,-31.84c10.391,-2.257 10.576,-0.566 130.282,-26.343c30.433,-6.553 20.237,19.822 12.358,86.268Z" style="fill:#fcfefe;"></path><path d="M2567.14,6034.722c2.519,-25.91 3.196,-25.612 6.469,-51.312c2.817,-22.114 1.49,-22.077 4.237,-44.031c9.983,-79.774 8.657,-79.89 9.623,-86.81c0.965,-6.92 1.708,-12.24 10.604,-86.695c11.97,-100.175 10.508,-100.213 22.475,-200.318c3.989,-33.367 6.767,-36.759 36.818,-42.771c0.536,-0.107 115.066,-23.99 121.838,-25.319c47.614,-9.347 129.382,-27.738 130.129,-27.784c10.122,-0.626 13.377,8.347 13.836,9.614c0.928,2.557 -6.03,41.419 -7.804,60.099c-3.081,32.454 -3.504,32.263 -48.442,391.555c-8.941,71.482 -9.062,93.935 -20.556,100.155c-11.716,6.341 -185.907,40.949 -206.994,45.013c-53.057,10.225 -74.309,17.558 -76.868,2.279c-0.58,-3.465 0.127,-3.277 4.635,-43.675Z" style="fill:#fcfdfe;"></path><path d="M2156.116,5783.447c-3.641,27.095 -34.508,256.786 -47.399,338.431c-4.351,27.552 1.286,43.905 -25.604,49.448c-10.292,2.122 -10.363,1.12 -130.226,17.195c-12.128,1.626 -111.951,14.357 -129.952,15.076c-31.336,1.253 -18.603,-15.239 -15.13,-46.481c1.345,-12.098 31.295,-243.172 34.735,-278.172c2.239,-22.784 10.652,-78.448 17.717,-147.774c5.595,-54.901 9.682,-56.655 23.816,-59.614c5.76,-1.206 208.128,-36.616 251.542,-45.788c2.085,-0.44 22.952,-4.849 26.276,-4.354c21.225,3.165 9.3,32.461 2.638,101.164c-0.975,10.056 -4.775,30.334 -8.412,60.869Z" style="fill:#fcfefe;"></path><path d="M2975.709,5652.347c0.689,-7.718 0.446,-10.111 2.771,-25.775c7.45,-50.2 17.014,-153.241 22.18,-166.921c5.71,-15.12 33.524,-15.688 65.328,-23.27c4.913,-1.171 31.638,-7.542 61.525,-14.154c69.165,-15.3 68.777,-16.346 137.869,-31.842c23.277,-5.22 25.476,3.642 22.806,27.367c-34.186,303.722 -30.903,303.895 -34.377,330.227c-5.992,45.425 -13.776,141.311 -15.324,156.647c-3.707,36.741 -12.012,34.869 -42.464,43.156c-66.279,18.037 -223.734,56.582 -243.226,61.354c-21.048,5.152 -21.052,-4.741 -18.096,-26.249c4.47,-32.525 5.098,-32.329 5.433,-35.155c0.742,-6.247 8.618,-72.59 9.086,-78.112c3.572,-42.099 21.593,-172.302 26.489,-217.274Z" style="fill:#fcfefe;"></path><path d="M3358.021,5452.454c0.517,-5.607 4.947,-53.677 7.778,-69.96c3.698,-21.271 10.753,-18.327 90.556,-36.461c170.483,-38.74 171.92,-42.597 179.2,-36.68c4.265,3.466 5.957,6.291 0.554,56.304c-4.874,45.115 -2.344,45.181 -6.152,87.077c-5.925,65.192 -3.848,65.203 -9.396,130.323c-5.553,65.186 -4.721,65.114 -9.76,130.294c-8.4,108.666 -2.197,117.787 -24.341,128.531c-4.805,2.331 -174.028,50.113 -217.004,60.851c-23.984,5.993 -56.905,20.001 -59.397,1.855c-0.188,-1.37 16.458,-161.569 16.909,-164.928c3.076,-22.905 5.773,-42.986 31.052,-287.208Z" style="fill:#fcfdfe;"></path><path d="M1623.213,6220.644c-69.697,2.791 -69.343,6.358 -139.103,9.074c-47.578,1.852 -48.994,4.754 -54.489,-0.979c-10.098,-10.534 -3.709,-12.657 2.837,-54.443c13.936,-88.96 49.794,-271.983 68.41,-391.295c6.956,-44.583 8.51,-49.841 26.352,-52.944c12.51,-2.176 111.763,-17.364 121.485,-18.851c9.817,-1.502 9.656,-2.186 122.375,-20.886c23.01,-3.817 20.836,12.805 19.671,23.482c-1.021,9.36 -7.115,51.146 -8.221,60.921c-2.576,22.753 -2.708,22.696 -24.127,190.388c-2.405,18.83 -29.696,232.49 -30.574,235.304c-4.035,12.936 -8.448,12.355 -78.655,18.541c-2.073,0.183 -1.923,0.125 -25.962,1.689Z" style="fill:#fcfdfe;"></path><path d="M3973.018,5635.521c-1.915,34.807 -3.523,81.414 -9.204,88.545c-7.741,9.716 -9.352,8.537 -176.617,59.139c-30.324,9.174 -30.282,8.657 -60.625,18.072c-22.808,7.077 -35.06,12.331 -44.314,8.857c-9.606,-3.607 -3.826,-7.765 1.185,-96.563c0.49,-8.676 10.383,-151.801 11.296,-165c8.113,-117.372 8.162,-117.207 15.306,-234.787c1.821,-29.967 10.657,-27.519 50.581,-36.734c18.124,-4.183 226.054,-52.173 226.579,-52.148c1.199,0.058 9.276,0.451 11.38,9.774c1.537,6.808 -19.985,321.297 -22.802,356.954c-1.744,22.079 -1.159,21.955 -2.763,43.891Z" style="fill:#fcfdfe;"></path><path d="M4108.064,5197.665c91.263,-21.818 91.358,-20.424 183.129,-40.661c39.361,-8.68 41.137,-9.687 46.934,-2.711c5.461,6.571 2.333,27.638 2.277,28.933c-6.185,144.033 -7.542,143.945 -8.013,156.47c-2.619,69.692 -4.277,69.495 -7.639,139.112c-5.492,113.73 -2.384,137.432 -18.098,143.853c-4.88,1.994 -159.763,50.8 -224.905,70.356c-13.445,4.036 -35.279,12.925 -38.446,-5.904c-1.265,-7.524 2.96,-7.302 6.648,-95.142c3.226,-76.826 5.917,-87.092 8.038,-130.411c5.548,-113.3 8.03,-112.993 13.455,-226.156c1.444,-30.125 7.366,-30.619 36.619,-37.74Z" style="fill:#fcfefe;"></path><path d="M1356.401,6183.329c-5.111,26.428 -5.966,50.449 -19.33,54.307c-1.391,0.402 -72.356,4.849 -209.487,5.171c-43.892,0.103 -49.947,1.644 -55.672,-4.38c-6.99,-7.355 -4.199,-9.338 20.687,-125.133c16.108,-74.949 46.388,-201.011 65.386,-294.658c4.545,-22.404 4.722,-35.864 30.039,-38.582c54.204,-5.819 152.356,-20.784 165.574,-22.799c21.942,-3.345 22.013,-2.164 43.832,-6.364c2.041,-0.393 21.591,-4.157 25.802,-3.064c9.847,2.555 8.086,16.25 7.887,17.794c-0.6,4.663 -74.519,416.472 -74.718,417.707Z" style="fill:#fbfdfd;"></path><path d="M8025.113,5564.688c75.864,-232.401 187.257,-477.038 257.877,-597.265c36.01,-61.306 36.791,-61.378 40.821,-62.72c10.416,-3.469 20.596,3.198 42.847,19.176c17.899,12.854 84.644,58.427 106.717,74.8c29.854,22.144 47.909,25.842 27.221,47.872c-43.269,46.076 -119.158,138.815 -120.218,140.189c-66.423,86.127 -66.177,86.095 -71.98,93.544c-8.744,11.226 -57.042,77.122 -80.993,110.906c-134.833,190.191 -208.852,328.75 -231.394,367.125c-17.718,30.164 -50.26,109.129 -55.144,119.688c-7.344,15.877 -17.036,5.199 -17.523,0.968c-0.629,-5.471 6.497,-24.662 7.269,-26.74c59.747,-160.901 56.523,-181.193 94.499,-287.542Z" style="fill:#fafdfd;"></path><path d="M7012.554,6829.56c-187.091,53.475 -191.743,75.173 -208.615,70.863c-10.024,-2.561 -38.863,-39.928 -78.851,-83.297c-12.996,-14.095 -19.388,-19.891 -2.56,-29.298c25.103,-14.034 139.044,-56.628 210.429,-76.43c234.124,-64.943 345.833,-71.555 530.651,-71.893c13.24,-0.024 155.796,-0.285 165.471,3.339c15.556,5.826 -3.405,31.584 -9.195,44.039c-34.864,75.003 -27.853,85.756 -51.933,87.651c-20.1,1.581 -146.047,-8.855 -251.881,1.258c-93.655,8.95 -141.25,11.397 -303.516,53.767Z" style="fill:#fbfdfe;"></path><path d="M4970.319,5404.03c-29.598,10.601 -157.336,52.833 -208.625,70.244c-11.419,3.876 -13.117,7.114 -21.414,-1.703c-5.244,-5.573 -2.556,-6.789 -2.976,-98.023c-0.457,-99.302 -0.333,-280.364 0.192,-286.555c1.792,-21.132 14.818,-18.699 74.973,-28.185c16.27,-2.566 85.359,-10.631 130.492,-16.719c9.955,-1.343 77.791,-8.174 78.455,-8.111c14.219,1.36 14.769,16.299 14.838,18.174c1.924,52.321 2.038,263.72 2.051,286.653c0.011,19.531 3.829,38.652 -15.702,46.352c-1.916,0.755 -1.884,0.7 -52.282,17.874Z" style="fill:#fbfdfd;"></path><path d="M4400.644,5470.003c2.473,-78.21 6.779,-103.365 8.455,-156.452c0.443,-14.016 5.157,-163.307 9.888,-175.002c4.735,-11.703 36.425,-14.949 37.562,-15.16c21.806,-4.051 69.327,-14.155 78.521,-15.762c109.568,-19.142 125.525,-29.777 130.188,-11.26c2.237,8.883 0.594,335.911 0.448,365.121c-0.169,33.736 5.523,42.527 -26.631,52.667c-164.666,51.925 -215.3,70.496 -227.028,74.401c-1.4,0.466 -14.513,4.831 -17.791,-4.847c-0.962,-2.841 0.656,-24.514 0.814,-26.641c6.031,-80.784 5.221,-80.807 5.573,-87.065Z" style="fill:#fcfdfe;"></path><path d="M5325.374,5014.719c8.346,-0.498 38.501,-2.297 104.444,-3.817c1.9,-0.044 18.389,-0.424 22.067,8.79c3.241,8.12 5.243,200.306 -0.305,214.042c-4.084,10.112 -13.762,12.094 -116.855,46.783c-184.631,62.126 -184.001,63.766 -200.15,68.858c-1.794,0.566 -18.723,5.904 -23.397,-2.308c-1.681,-2.954 -1.914,-58.686 -3.211,-215.851c-0.759,-91.984 -5.958,-102.103 17.48,-105.534c1.739,-0.254 145.72,-8.724 199.926,-10.963Z" style="fill:#fbfdfd;"></path><path d="M1141.781,5556.791c2.224,-29.278 6.225,-78.633 10.896,-87.266c4.193,-7.75 6.39,-6.331 201.938,-55.849c111.358,-28.199 110.652,-30.704 120.549,-31.973c12.061,-1.546 14.13,9.245 14.4,10.652c0.309,1.61 -3.478,159.589 -3.811,173.466c-0.133,5.56 -0.42,5.508 -2.076,69.487c-0.853,32.946 -10.497,31.131 -43.09,35.566c-152.501,20.751 -152.232,21.721 -165.498,23.398c-111.884,14.137 -128.817,19.142 -138.366,17.359c-19.112,-3.569 -5.663,-29.47 5.059,-154.839Z" style="fill:#fbfdfe;"></path><path d="M3783.598,5061.549c0.257,-10.98 2.97,-127.054 7.625,-137.078c4.435,-9.549 10.718,-8.905 100.214,-8.963c200.859,-0.13 203.607,-4.87 211.609,4.434c5.129,5.964 3.915,17.692 3.884,20.04c-2.322,174.053 -1.601,175.528 -7.972,181.467c-10.069,9.388 -11.671,5.813 -25.275,8.378c-16.516,3.115 -54.047,13.046 -69.831,15.793c-19.107,3.325 -158.324,36.044 -181.169,41.138c-9.922,2.212 -35.597,11.302 -42.101,3.591c-6.177,-7.322 0.983,-45.353 3.017,-128.802Z" style="fill:#fbfdfe;"></path><path d="M5274.976,7376.332c42.418,0.928 60.437,-9.121 102.56,-13.423c318.811,-32.554 337.707,-8.263 338.449,2.087c1.522,21.239 -53.866,25.701 -112.095,36.131c-51.946,9.305 -360.722,46.747 -469.421,68.856c-151.639,30.843 -207.289,37.302 -374.391,93.336c-12.412,4.162 -36.994,16.91 -60.994,2.386c-8.737,-5.287 -33.561,-43.129 17.388,-63.45c18.807,-7.501 135.77,-45.781 183.832,-56.505c9.05,-2.019 8.653,-3.476 112.732,-26.922c17.174,-3.869 115.578,-26.036 216.491,-39.461c22.677,-3.017 22.63,-2.504 45.449,-3.035Z" style="fill:#254e93;"></path><path d="M3762.131,5995.57c9.689,-2.238 68.372,-15.792 120.736,-29.558c17.736,-4.663 168.332,-40.684 174.144,-41.721c81.49,-14.552 119.521,89.559 59.39,135.527c-25.371,19.395 -118.182,35.121 -206.898,56.48c-105.598,25.423 -105.194,26.287 -114.371,28.449c-66.333,15.629 -102.44,-36.478 -100.276,-74.781c3.483,-61.659 60.4,-71.959 67.275,-74.396Z" style="fill:#224e97;"></path><path d="M3148.847,6208.695c7.083,-44.061 23.013,-64.65 82.524,-75.283c112.079,-20.026 266.717,-58.124 295.085,-57.867c84.695,0.766 101.626,112.531 35.503,143.626c-9.046,4.254 -14.251,6.702 -121.879,27.556c-88.102,17.071 -172.35,35.868 -200.467,40.566c-39.624,6.621 -69.471,-16.172 -79.585,-34.04c-14.988,-26.479 -11.063,-42.107 -11.181,-44.557Z" style="fill:#214d96;"></path><path d="M5057.037,5595.472c53.796,-13.34 68.48,-18.491 85.667,-22.401c63.946,-14.546 115.313,58.639 83.96,112.511c-21.317,36.626 -53.977,37.31 -195.835,74.407c-129.581,33.886 -129.388,34.276 -140.722,36.921c-97.688,22.794 -123.938,-72.241 -91.018,-115.245c24.81,-32.41 53.716,-27.226 257.949,-86.193Z" style="fill:#204c94;"></path><path d="M4413.616,5803.114c29.793,-8.327 88.179,-23.2 95.863,-25.157c37.23,-9.483 71.16,-19.204 85.848,-21.847c44.95,-8.088 92.707,39.242 84.448,87.439c-10.488,61.203 -68.869,64.718 -100.92,72.898c-225.507,57.549 -225.058,59.196 -244.779,63.729c-96.715,22.227 -110.115,-62.405 -100.879,-91.992c16.271,-52.124 61.943,-52.903 180.419,-85.069Z" style="fill:#204c95;"></path><path d="M2848.95,6220.59c29.744,-4.505 92.106,-16.135 95.645,-16.638c104.161,-14.782 133.334,133.29 25.141,150.356c-107.073,16.889 -263.249,43.672 -286.119,47.594c-100.337,17.207 -133.93,-96.568 -60.231,-139.172c12.378,-7.155 13.045,-5.922 225.565,-42.141Z" style="fill:#214d95;"></path><path d="M6109.7,5009.795l-3.025,6.412c-48.532,9.692 -47.976,11.488 -94.554,27.998c-71.573,25.37 -71.572,25.051 -77.756,27.341c-60.079,22.243 -121.5,43.513 -132.104,47.185c-113.115,39.172 -113.177,38.597 -225.804,78.947c-26.399,9.457 -46.831,20.878 -49.776,2.819c-1.675,-10.274 0.169,-10.304 -0.301,-130.123c-0.173,-44.042 -5.56,-60.384 16.149,-62.921c23.916,-2.795 416.067,-3.009 452.248,-3.029c112.916,-0.062 116.46,-7.27 118.664,-0.257c0.675,2.149 -4.416,3.479 -3.74,5.628Z" style="fill:#f9fcfd;"></path><path d="M2404.686,6457.092c-84.219,10.126 -126.185,13.835 -181.95,21.567c-7.436,1.031 -71.998,7.73 -78.261,8.379c-22.478,2.332 -51.637,4.378 -79.112,-25.25c-36.147,-38.98 -21.566,-115.492 52.6,-125.387c10.668,-1.423 112.389,-12.992 122.164,-14.104c159.643,-18.156 159.772,-18.324 173.589,-16.405c64.264,8.923 93.401,95.307 33.841,136.027c-13.139,8.983 -39.31,14.431 -42.871,15.173Z" style="fill:#214e96;"></path><path d="M788.177,6395.281c18.677,4.343 19.14,3.155 35.371,13.337c46.962,29.458 43.78,111.56 -16.43,133.459c-22.889,8.325 -23.748,4.178 -218.25,-5.735c-108.426,-5.526 -119.03,-9.398 -137.06,-25.628c-42.226,-38.012 -28.136,-112.2 32.223,-129.27c26.87,-7.599 77.565,2.188 174.03,5.378c10.425,0.345 10.377,0.554 130.115,8.459Z" style="fill:#214e96;"></path><path d="M1579.793,6386.154c55.927,-2.357 55.751,-3.678 103.887,-6.06c175.083,-8.663 177.784,-15.345 208.503,3.061c43.363,25.981 52.884,113.026 -18.377,135.213c-25.654,7.987 -280.529,20.715 -285.577,20.835c-90.578,2.167 -93.815,-74.136 -86.723,-95.535c18.812,-56.763 70.258,-56.412 78.287,-57.514Z" style="fill:#214e96;"></path><path d="M957.321,6469.9c0.545,-2.546 2.114,-28.922 24.885,-49.591c18.256,-16.57 45.599,-18.686 49.855,-19.016c14.232,-1.101 258.888,-0.157 269.324,0.09c90.22,2.136 113.495,99.557 46.034,142.178c-18.497,11.686 -20.054,10.344 -185.06,10.173c-140.094,-0.146 -157.967,4.786 -186.472,-28.501c-20.734,-24.212 -18.329,-43.727 -18.565,-55.333Z" style="fill:#214e95;"></path><path d="M7306.315,5414.357c-0.529,0.078 -82.458,23.573 -140.498,-55.586c-27.464,-37.458 -34.309,-101.231 -1.178,-151.489c74.744,-113.382 232.543,-60.472 239.84,71.598c2.91,52.677 -29.929,112.898 -87.946,132.405c-3.371,1.133 -6.846,1.939 -10.217,3.072Z" style="fill:#204c95;"></path><path d="M7611.379,5380.381c-2.84,-0.111 -5.685,-0.055 -8.525,-0.166c-69.606,-2.724 -137.496,-73.553 -125.676,-153.886c20.466,-139.098 205.749,-162.692 253.444,-24.742c22.66,65.539 -8.463,173.547 -119.243,178.794Z" style="fill:#204d94;"></path><path d="M6933.479,5195.513c22.565,1.895 22.719,0.71 35.01,4.29c87.134,25.382 118.459,123.945 84.938,191.344c-37.531,75.461 -114.791,83.03 -154.304,69.012c-100.65,-35.708 -110.396,-141.522 -76.966,-197.641c38.914,-65.324 100.567,-65.951 111.322,-67.005Z" style="fill:#204d94;"></path><path d="M4199.583,4540.33c0.607,-3.878 1.131,-21.805 10.168,-44.913c16.97,-43.392 62.457,-70.166 99.197,-74.87c134.738,-17.25 190.598,107.529 140.999,181.857c-64.632,96.855 -198.403,70.632 -237.327,-9.847c-14.412,-29.799 -12.629,-47.224 -13.037,-52.228Z" style="fill:#1f4c95;"></path><path d="M3957.121,4540.174c-1.202,13.16 -0.052,74.443 -74.934,111.819c-57.375,28.638 -155.85,10.162 -188.486,-77.776c-5.116,-13.786 -13.315,-60.232 17.532,-101.853c56.716,-76.527 202.836,-74.47 240.261,33.314c3.916,11.279 2.732,11.446 5.627,34.496Z" style="fill:#1f4d95;"></path><path d="M3326.546,4422.125c2.849,0.178 5.715,-0.127 8.564,0.052c114.672,7.18 145.705,106.117 118.514,168.801c-48.382,111.534 -230.871,95.88 -257.527,-33.39c-10.046,-48.719 28.537,-91.839 38.224,-100.619c32.012,-29.015 84.374,-34.083 92.224,-34.843Z" style="fill:#1f4d95;"></path><path d="M3399.693,3627.267c-0.147,-7.183 -6.141,-54.327 36.684,-106.471c21.977,-26.759 48.284,-52.625 80.732,-39.655c31.177,12.462 124.454,137.103 27.441,242.764c-33.516,36.504 -48.467,45.3 -71.506,27.045c-64.272,-50.928 -69.302,-94.478 -73.351,-123.683Z" style="fill:#fbfdfe;"></path><path d="M8209.452,6413.326c-2.313,0.901 -50.116,13.435 -74.608,65.949c-22.977,49.267 4.987,113.471 2.607,128.914c-5.198,33.733 -56.673,39.824 -67.228,10.026c-32.382,-91.42 -7.908,-152.075 -2.99,-164.264c37.944,-94.036 159.502,-139.281 191.294,-100.22c7.301,8.97 12.691,34.587 -20.575,48.339c-2.265,0.937 -2.319,0.75 -28.501,11.256Z" style="fill:#244d90;"></path><path d="M8229.173,7692.917c5.588,-1.385 10.623,-6.905 51.103,-3.109c7.975,0.748 56.386,7.438 85.938,17.719c33.513,11.659 58.605,29.19 61.434,32.415c0.928,1.058 0.44,2.974 1.435,3.97c2.1,2.102 5.339,2.81 7.439,4.912c-3.403,5.149 -4.063,4.419 -7.427,9.509c-2.757,4.171 -1.797,4.446 -2.027,4.794c-1.093,1.653 -1.981,0.754 -15.152,19.596c-6.278,8.981 -6.543,8.528 -14.949,15.759c-2.668,-1.094 -5.755,-0.881 -8.423,-1.975c-2.482,-1.018 -0.733,-4.046 -29.426,-16.084c-8.521,-3.575 -8.88,-3.531 -17.667,-0.415l-13.01,13.359c-9.435,-11.766 -31.672,-45.192 -76.033,-77.492c-13.316,-9.696 -12.18,-10.762 -23.235,-22.959Z" style="fill:#204d92;"></path><path d="M8328.441,7793.369l13.01,-13.359c14.09,20.12 13.608,20.339 15.214,21.725c1.748,1.508 4.717,0.325 6.799,1.323c1.899,0.91 3.016,2.964 4.722,4.198c10.375,7.505 9.439,8.319 16.806,18.848c-0.644,2.515 0.274,5.265 -0.37,7.78c-0.391,1.526 -1.518,1.14 -6.181,18.694c-0.41,1.544 -5.109,19.233 -10.77,16.811c-1.178,-0.504 -12.256,-14.065 -14.395,-18.558c-0.028,-0.059 -12.35,-30.594 -13.424,-33.254c-6.204,-15.374 -6.814,-14.964 -11.412,-24.207Z" style="fill:#204d92;"></path><path d="M8396.967,7798.483c5.577,10.076 4.859,10.332 12.287,19.375c1.676,2.04 19.74,24.029 8.994,31.758c-1.901,1.367 -4.866,2.203 -6.935,1.109c-0.151,-0.08 -0.054,-0.001 -10.85,-13.744c-6.85,-8.719 -15.083,-10.604 -15.471,-10.877c-7.366,-10.529 -6.431,-11.344 -16.806,-18.848c-1.707,-1.234 -2.823,-3.288 -4.722,-4.198c-2.082,-0.998 -5.051,0.185 -6.799,-1.323c-1.606,-1.386 -1.124,-1.605 -15.214,-21.725c8.787,-3.117 9.146,-3.16 17.667,0.415c28.694,12.038 26.944,15.066 29.426,16.084c2.668,1.094 5.755,0.881 8.423,1.975Z" style="fill:#204d92;"></path><path d="M8086.441,7046.074c0.085,2.336 3.643,3.603 3.728,5.938c0.207,5.708 -9.141,6.691 -10.11,6.793c-2.776,0.292 -5.599,-0.357 -8.375,-0.065c7.82,-5.861 7.694,-5.791 14.757,-12.665Z" style="fill:#7ba0c3;"></path></g></g><defs><linearGradient id="_Linear1" x1="0" y1="0" x2="1" y2="0" gradientUnits="userSpaceOnUse" gradientTransform="matrix(0,5274.136834,-5274.136834,0,4251.320393,0)"><stop offset="0" style="stop-color:#f6af18;stop-opacity:1"></stop><stop offset="1" style="stop-color:#f6af18;stop-opacity:1"></stop></linearGradient></defs></svg> 