<?xml version="1.0" encoding="UTF-8" standalone="no"?> <svg xmlns="http://www.w3.org/2000/svg" xmlns:xlink="http://www.w3.org/1999/xlink" xmlns:serif="http://www.serif.com/" width="100%" height="100%" viewBox="0 0 1185 1186" version="1.1" xml:space="preserve" style="fill-rule:evenodd;clip-rule:evenodd;stroke-miterlimit:10;"> <g transform="matrix(1,0,0,1,-1152.13,-431.075)"> <g transform="matrix(4.16667,0,0,4.16667,0,0)"> <g transform="matrix(1,0,0,1,452.313,347.596)"> <path d="M0,-93.023C0.045,-62.979 -6.745,-34.599 -19.566,-11.955C-19.771,-11.589 -19.903,-11.356 -19.987,-11.198C-21.464,-8.373 -24.774,-6.539 -28.411,-6.539L-39.105,-6.539C-42.743,-6.539 -46.052,-8.373 -47.535,-11.217C-47.61,-11.354 -47.745,-11.587 -47.916,-11.897C-58.849,-31.207 -65.39,-54.638 -67.076,-79.702C-91.115,-76.733 -115.471,-77.755 -142.284,-89.144C-135.982,-34.781 -89.813,7.43 -33.757,7.43C24.923,7.43 72.787,-38.821 75.402,-96.855C47.776,-100.453 23.195,-97.531 0,-93.023Z" style="fill:rgb(21,124,176);fill-rule:nonzero;stroke:rgb(64,63,65);stroke-width:6.57px;"></path> </g> </g> <g transform="matrix(4.16667,0,0,4.16667,0,0)"> <g transform="matrix(1,0,0,1,385.718,143.557)"> <path d="M0,91.815C4.269,43.878 18.763,19.019 24.97,10.382L25.22,10.033C26.644,8.054 29.112,6.87 31.829,6.866L32.308,6.866C38.111,6.866 40.194,10.459 43.643,16.409C45.61,19.806 48.625,25.489 51.81,33.285C56.136,43.877 61.391,59.99 64.362,80.807C89.213,78.157 114.404,79.061 141.351,89.38C135.009,35.061 88.862,-7.105 32.838,-7.105C-25.227,-7.105 -72.689,38.184 -76.214,95.357C-49.179,98.92 -24.184,96.052 0,91.815Z" style="fill:rgb(229,189,139);fill-rule:nonzero;stroke:rgb(64,63,65);stroke-width:6.57px;"></path> </g> </g> <g transform="matrix(4.16667,0,0,4.16667,0,0)"> <g transform="matrix(1,0,0,1,404.397,259.931)"> <path d="M0,75.768C0.171,76.078 0.306,76.311 0.381,76.448C1.864,79.292 5.173,81.126 8.811,81.126L19.505,81.126C23.142,81.126 26.452,79.292 27.929,76.467C28.013,76.309 28.145,76.076 28.35,75.71C41.171,53.066 47.961,24.686 47.916,-5.358C24.722,-0.848 2.916,5.238 -19.16,7.963C-17.474,33.027 -10.933,56.458 0,75.768" style="fill:rgb(99,181,229);fill-rule:nonzero;"></path> </g> </g> <g transform="matrix(4.16667,0,0,4.16667,0,0)"> <g transform="matrix(1,0,0,1,404.397,259.931)"> <path d="M0,75.768C0.171,76.078 0.306,76.311 0.381,76.448C1.864,79.292 5.173,81.126 8.811,81.126L19.505,81.126C23.142,81.126 26.452,79.292 27.929,76.467C28.013,76.309 28.145,76.076 28.35,75.71C41.171,53.066 47.961,24.686 47.916,-5.358C24.722,-0.848 2.916,5.238 -19.16,7.963C-17.474,33.027 -10.933,56.458 0,75.768Z" style="fill:none;fill-rule:nonzero;stroke:rgb(64,63,65);stroke-width:6.57px;"></path> </g> </g> <g transform="matrix(4.16667,0,0,4.16667,0,0)"> <g transform="matrix(1,0,0,1,437.528,208.953)"> <path d="M0,-32.111C-3.185,-39.907 -6.2,-45.59 -8.167,-48.987C-11.616,-54.938 -13.699,-58.53 -19.502,-58.53L-19.981,-58.53C-22.698,-58.526 -25.167,-57.342 -26.59,-55.363L-26.84,-55.014C-33.047,-46.377 -47.542,-21.518 -51.81,26.419C-30.004,22.599 -8.85,17.692 12.552,15.411C9.581,-5.406 4.326,-21.52 0,-32.111" style="fill:rgb(234,173,108);fill-rule:nonzero;"></path> </g> </g> <g transform="matrix(4.16667,0,0,4.16667,0,0)"> <g transform="matrix(1,0,0,1,437.528,208.953)"> <path d="M0,-32.111C-3.185,-39.907 -6.2,-45.59 -8.167,-48.987C-11.616,-54.938 -13.699,-58.53 -19.502,-58.53L-19.981,-58.53C-22.698,-58.526 -25.167,-57.342 -26.59,-55.363L-26.84,-55.014C-33.047,-46.377 -47.542,-21.518 -51.81,26.419C-30.004,22.599 -8.85,17.692 12.552,15.411C9.581,-5.406 4.326,-21.52 0,-32.111Z" style="fill:none;fill-rule:nonzero;stroke:rgb(64,63,65);stroke-width:6.57px;"></path> </g> </g> <g transform="matrix(4.16667,0,0,4.16667,0,0)"> <g transform="matrix(-0.651332,-0.758793,-0.758793,0.651332,377.826,169.484)"> <path d="M-34.967,16.068L7.383,16.068" style="fill:none;fill-rule:nonzero;stroke:rgb(64,63,65);stroke-width:6.57px;"></path> </g> </g> <g transform="matrix(4.16667,0,0,4.16667,0,0)"> <g transform="matrix(1,0,0,1,450.08,310.182)"> <path d="M0,-28.236L2.201,-26.486C4.494,-23.679 9.305,-13.289 10.422,-10.503C10.939,-9.21 11.831,-7.797 12.944,-6.502L14.575,-4.591C17.416,-1.28 20.829,0.453 22.197,-0.716L27.026,-4.867C28.394,-6.038 27.193,-9.67 24.354,-12.981L22.688,-14.922C21.599,-16.195 20.353,-17.275 19.17,-17.993L18.953,-18.119C16.372,-19.667 7.186,-25.832 4.459,-28.689" style="fill:rgb(64,63,65);fill-rule:nonzero;"></path> </g> </g> <g transform="matrix(4.16667,0,0,4.16667,0,0)"> <g transform="matrix(0,1,1,0,423.464,315.009)"> <path d="M-5.177,-5.177L5.177,-5.177" style="fill:none;fill-rule:nonzero;stroke:rgb(64,63,65);stroke-width:4.38px;stroke-linecap:round;"></path> </g> </g> <g transform="matrix(4.16667,0,0,4.16667,0,0)"> <g transform="matrix(-0.726569,0.687093,0.687093,0.726569,360.481,179.164)"> <path d="M-7.982,-3.177L1.264,-3.176" style="fill:none;fill-rule:nonzero;stroke:rgb(64,63,65);stroke-width:4.38px;stroke-linecap:round;"></path> </g> </g> </g> </svg> 